<svg width="32" height="32" viewBox="0 0 32 32" fill="none" xmlns="http://www.w3.org/2000/svg"><g clip-path="url(#a)"><path class="bg" d="M0 0h32.05v32.05H0V0Z" fill="#fff"/><path class="el" fill-rule="evenodd" clip-rule="evenodd" d="M7.54 12.21h.95a2.83 2.83 0 0 1 2.83 2.83v1.3c0 .47.34.86.8.93l7.5 1.22a.94.94 0 0 0 1.1-.93v-2.52a2.83 2.83 0 0 1 2.82-2.83h.99v1.89h-1a.94.94 0 0 0-.93.94v2.52a2.83 2.83 0 0 1-3.28 2.79l-7.5-1.22a2.83 2.83 0 0 1-2.38-2.79v-1.3a.94.94 0 0 0-.95-.94h-.95V12.2Z" fill="#2E9CB4"/></g><defs><clipPath id="a"><path fill="#fff" d="M0 0h32v32H0z"/></clipPath></defs><style>@media (prefers-color-scheme: dark) {:root {filter: none;} .bg {fill: #141414} .el {fill: #f9fbfc}}</style></svg>