<?xml version="1.0" standalone="no"?>
<!DOCTYPE svg PUBLIC "-//W3C//DTD SVG 20010904//EN"
  "http://www.w3.org/TR/2001/REC-SVG-20010904/DTD/svg10.dtd">
<svg version="1.0" xmlns="http://www.w3.org/2000/svg"
  width="700.000000pt" height="700.000000pt" viewBox="0 0 700.000000 700.000000"
  preserveAspectRatio="xMidYMid meet">
<metadata>
Created by potrace 1.14, written by Peter Selinger 2001-2017
</metadata>
<g transform="translate(0.000000,700.000000) scale(0.100000,-0.100000)"
fill="#000000" stroke="none">
<path d="M1650 4120 l0 -210 130 0 c138 0 167 -7 218 -54 53 -47 56 -65 63
-311 5 -212 8 -236 32 -310 55 -168 174 -299 336 -374 84 -38 65 -35 1182
-215 361 -58 685 -106 721 -106 80 0 197 29 274 68 156 79 271 222 320 399 13
46 18 130 23 420 7 405 2 380 85 447 l38 31 149 3 149 3 0 210 0 209 -142 0
c-86 0 -170 -6 -212 -15 -205 -43 -390 -211 -458 -415 -20 -60 -22 -90 -27
-430 -6 -355 -7 -366 -29 -407 -30 -57 -89 -95 -155 -101 -63 -5 -1713 260
-1755 282 -38 20 -78 65 -96 108 -13 29 -16 78 -16 225 0 222 -12 293 -69 408
-67 135 -178 240 -317 298 -84 36 -159 47 -311 47 l-133 0 0 -210z"/>
</g>
</svg>
