<svg xmlns="http://www.w3.org/2000/svg"><style>:root svg:not(:target){display:none}</style><svg viewBox="0 0 17 10" fill="none" id="arrow-down"><path fill-rule="evenodd" clip-rule="evenodd" d="M16.62 1.01a.94.94 0 0 0-1.3 0l-6.43 6.23-6.43-6.23a.94.94 0 0 0-1.3 0 .87.87 0 0 0 0 1.26l7.73 7.48 7.73-7.48a.87.87 0 0 0 0-1.26Z" fill="#828282"></path></svg><svg viewBox="0 0 9 16" fill="none" id="arrow"><path fill-rule="evenodd" clip-rule="evenodd" d="M.25.25a.87.87 0 0 0 0 1.23l6.09 6.09-6.09 6.08a.87.87 0 1 0 1.23 1.23l7.32-7.31-7.32-7.32a.87.87 0 0 0-1.23 0Z" fill="#828282"></path></svg><svg viewBox="0 0 16 16" fill="none" id="check"><circle cx="8" cy="8" r="8" fill="#2E9CB4"></circle><path d="m5.06 7.62 1.93 2.26c.17.2.48.2.66 0l3.79-4.13" stroke="#F9FBFC" stroke-width="1.5" stroke-linecap="round"></path></svg><svg viewBox="0 0 14 14" fill="none" id="quote"><path d="M13.66 7.18v5.82h-5.45v-6.32c0-3.44 2.31-5.68 5.79-5.68v2.7c-1.79.23-2.7 1.15-2.7 2.52v.96h2.36Zm-8.2 0v5.82h-5.46v-6.32c0-3.44 2.32-5.68 5.8-5.68v2.7c-1.8.23-2.71 1.15-2.71 2.52v.96h2.37Z" fill="#F9FBFC"></path></svg></svg>