<svg xmlns="http://www.w3.org/2000/svg"><style>:root svg:not(:target){display:none}</style><svg viewBox="0 0 17 10" fill="none" id="arrow-down"><path fill-rule="evenodd" clip-rule="evenodd" d="M16.62 1.01a.94.94 0 0 0-1.3 0l-6.43 6.23-6.43-6.23a.94.94 0 0 0-1.3 0 .87.87 0 0 0 0 1.26l7.73 7.48 7.73-7.48a.87.87 0 0 0 0-1.26Z" fill="#828282"></path></svg><svg viewBox="0 0 9 16" fill="none" id="arrow"><path fill-rule="evenodd" clip-rule="evenodd" d="M.25.25a.87.87 0 0 0 0 1.23l6.09 6.09-6.09 6.08a.87.87 0 1 0 1.23 1.23l7.32-7.31-7.32-7.32a.87.87 0 0 0-1.23 0Z" fill="#828282"></path></svg></svg>