<svg viewBox="0 0 1041 4719" fill="none" xmlns="http://www.w3.org/2000/svg"><path opacity=".2" fill-rule="evenodd" clip-rule="evenodd" d="M496.55 8h70v99.85l93.67 992.28a215.02 215.02 0 0 1-86.8 193.51l-35.83 26.31c-74.27 54.54-79.5 163.63-10.77 225.01l30.82 27.54a215 215 0 0 1 50.85 252.87l-105.53 221.34a145 145 0 0 0 17.28 152.51l44.2 55.74c69.57 87.7 53.45 215.44-35.7 283.12a129.68 129.68 0 0 0-35.34 165.57l120.65 220.35c43.8 80.01 23.08 180-48.93 236.01a115.89 115.89 0 0 0-33.05 142.19l99.36 204.18a215 215 0 0 1-21.28 223.04l-111.9 149.27a145.01 145.01 0 0 0-27.35 108.6l93.25 618.14a214.8 214.8 0 0 1 2.4 32.07v71.5h-70v-71.5c0-7.24-.54-14.47-1.62-21.63l-93.25-618.14a215 215 0 0 1 40.56-161.02l111.9-149.28a145 145 0 0 0 14.35-150.42l-99.37-204.18a185.9 185.9 0 0 1 53.03-228.08 115.9 115.9 0 0 0 30.5-147.14l-120.65-220.34c-47.49-86.73-24.35-195.16 54.41-254.94 57.9-43.96 68.37-126.92 23.2-183.87l-44.21-55.74a215.01 215.01 0 0 1-25.63-226.13l105.53-221.34a145 145 0 0 0-34.29-170.54l-30.82-27.54c-101.9-91.02-94.16-252.77 15.97-333.64l35.84-26.32a145 145 0 0 0 58.53-130.5l-93.98-995.56v-103.15Z" fill="#828282"/></svg>