<svg viewBox="0 0 832 4997" fill="none" xmlns="http://www.w3.org/2000/svg"><path opacity=".2" fill-rule="evenodd" clip-rule="evenodd" d="M468.5 0v143.06c0 41.17-10.89 81.61-31.55 117.23l-79.79 137.48a126.44 126.44 0 0 0 13.1 145.43l385.9 453.2c10.15 11.92 22.08 27.81 30.04 47.8 45.84 115.03-6.46 248.29-122.38 299.71l-382.08 169.5c-103 45.7-99.3 193.13 5.88 233.58l340.94 131.14a233.54 233.54 0 0 1 135.28 137.14l31.54 85.47c49.9 135.22-33.4 282.92-174.93 310.19l-410.29 79.07c-76.47 14.73-121.56 94.43-94.82 167.57l176.02 481.37 288.03 546.49c3.79 7.19 6.97 11.86 9.97 15.18 12.95 14.3 32.18 32.23 55.85 53.65 5.21 4.72 10.62 9.58 16.15 14.56 18.77 16.9 39.02 35.13 58.18 53.32 24.77 23.52 49.58 48.7 69.15 73.51 18.3 23.2 37.86 53.14 42.4 85.71 4.2 30.11-7.11 54.63-14.87 69.03a408.35 408.35 0 0 1-9.42 16.24l-1.86 3.11c-3.28 5.5-5.18 8.97-6.41 11.74l-319.17 719.38a126.45 126.45 0 0 0-10.86 51.28v144.86h-107.13v-144.86c0-32.63 6.84-64.9 20.07-94.72l319.17-719.39c4-9.01 8.71-17.11 12.31-23.14l2.96-4.94c2.46-4.1 4.26-7.1 6.02-10.36a54.66 54.66 0 0 0 2.6-5.39c-1.46-4.57-6.4-15.06-19.91-32.19-14.8-18.76-35.22-39.78-58.81-62.18-18.02-17.11-36.8-34.02-55.39-50.75l-17.05-15.38c-23.24-21.03-46.33-42.35-63.38-61.18-11.23-12.39-19.24-25.57-25.34-37.14l-291.39-552.88-178.5-488.14c-49.4-135.11 33.9-282.33 175.16-309.56l410.29-79.06c76.61-14.76 121.7-94.72 94.7-167.92l-31.54-85.47a126.44 126.44 0 0 0-73.23-74.24l-340.94-131.13c-194.29-74.72-201.15-347.08-10.87-431.49l382.08-169.5c62.69-27.81 91.08-99.96 66.3-162.14-1.74-4.36-5.23-9.95-12.08-17.99l-385.91-453.2a233.57 233.57 0 0 1-24.19-268.66l79.79-137.48a126.43 126.43 0 0 0 17.08-63.47v-143.05h107.13Z" fill="#828282"/></svg>