<svg viewBox="0 0 30 30" fill="none" xmlns="http://www.w3.org/2000/svg"><path fill-rule="evenodd" clip-rule="evenodd" d="M10.87 16.08a1299.64 1299.64 0 0 1 9.01-6.02 45.27 45.27 0 0 1 1.2-.72c.14-.04.35-.08.5.05.14.12.12.36.1.42-.01.08-.15.26-.38.5l-.65.68c-.71.71-1.69 1.65-2.63 2.53a477.87 477.87 0 0 1-3 2.8l-.57.57c-1.15 1.1-2 1.93.05 3.29.99.65 1.78 1.19 2.57 1.73.86.58 1.72 1.17 2.83 1.9l-1.02 1.55c-1.13-.73-2-1.33-2.86-1.91l-2.54-1.72c-1.12-.73-2.37-1.91-2.03-3.65l.04-.18-7.58.03-.52-.16-.1-.03a9.88 9.88 0 0 1-1.8-.71 3.09 3.09 0 0 1-1.05-.93 2.53 2.53 0 0 1-.42-1.76c.12-.98.8-1.6 1.23-1.92a7.65 7.65 0 0 1 1.7-.9c7.04-3.07 11.75-5.1 14.11-6.08a175.5 175.5 0 0 1 6.78-2.72 9.2 9.2 0 0 1 2.93-.72c.25 0 .57.02.9.1a2.87 2.87 0 0 1 2.25 2.38c.05.3.11.9.06 1.45-.37 3.92-1.96 13.28-2.76 17.56-.38 1.99-1.34 3.8-3.32 4-1.82.16-3.24-.86-4.12-1.5l-.14-.1 1.08-1.52c1 .72 1.9 1.36 3.01 1.26.65-.06 1.32-.67 1.66-2.48.8-4.29 2.37-13.57 2.74-17.4.03-.33-.01-.76-.04-.95-.04-.19-.1-.46-.35-.66a1.6 1.6 0 0 0-.94-.28c-.9.02-2.3.5-9.02 3.3-2.35.98-7.06 3-14.11 6.08-1.15.45-1.75.9-1.8 1.33-.1.74.83 1.03 2.08 1.42l.53.17c1.24.4 2.9.87 3.76.9a4.6 4.6 0 0 0 2.63-.98Zm.62 1.82-7.58.03c.64.21 1.4.44 2.14.63.69.17 1.5.34 2.15.35a6.07 6.07 0 0 0 3.29-1.01Zm9.23 6.47-1.08 1.52-.76-.53 1.02-1.55.82.56Z" fill="#141414"/></svg>