<svg viewBox="0 0 896 7052" fill="none" xmlns="http://www.w3.org/2000/svg"><path opacity=".2" fill-rule="evenodd" clip-rule="evenodd" d="M372.12 0v271.94l-56.4 511.56a125.31 125.31 0 0 0 15.18 75.13c73.92 131.94 272.45 484.63 359.26 622.75 69.57 110.69 34.74 256.94-77.27 324.38l-430.17 259.01c-85.34 51.39-80.5 176.7 8.56 221.35l423.56 212.34a233.56 233.56 0 0 1 117.95 138.17l162.92 513.54-673.31 62.65c-81.75 7.6-134.69 89.9-107.7 167.44l219.91 631.99c3.49 10 8.2 19.52 14.06 28.34l455.97 687.26c75.94 114.45 37.2 269.4-83.66 334.65l-273.06 147.42a126.44 126.44 0 0 0-60.5 149.37l214.14 677.42a233.58 233.58 0 0 1-84.75 258.88l-4.78 3.48c-6.82 4.96-11.51 8.37-16.02 12.3l-130.67 113.9c-7.23 6.3-16.03 12.82-22.21 17.4-1.9 1.41-3.56 2.63-4.84 3.61-37.81 28.81-48.06 90.8-15.77 154.52l1 1.99c20.63 40.68 48.6 95.86 48.6 157.71v291.5h-107.13v-291.5c0-33.14-15.35-66.51-38.03-111.28-45.22-89.25-48.46-215.87 46.4-288.15 3.88-2.95 6.98-5.25 9.64-7.21 4.77-3.52 8.11-6 11.95-9.34l130.67-113.9c8.43-7.36 17.66-14.04 24.52-19.01 1.22-.89 2.38-1.72 3.43-2.5a126.44 126.44 0 0 0 45.85-140.11l-214.14-677.43c-33.78-106.87 13.12-222.67 111.74-275.92l273.06-147.42c65.43-35.32 86.4-119.2 45.3-181.16l-455.98-687.25a233.46 233.46 0 0 1-25.96-52.37l-219.92-631.98c-49.84-143.25 47.93-295.27 198.95-309.32l540.92-50.32-122.71-386.81a126.44 126.44 0 0 0-63.85-74.79l-423.57-212.35c-164.5-82.47-173.45-313.96-15.8-408.88l430.17-259.02c60.63-36.5 79.5-115.67 41.83-175.6-88.62-140.98-288.74-496.59-362.02-627.39a232.44 232.44 0 0 1-28.2-139.23l55.75-505.7v-266.06h107.13Z" fill="#b18b6c"/></svg>