<svg viewBox="0 0 30 30" fill="none" xmlns="http://www.w3.org/2000/svg"><g clip-path="url(#a)" fill="#141414"><path d="M15 2.7c4.02 0 4.5.02 6.07.09a8 8 0 0 1 2.79.52c.7.26 1.2.6 1.72 1.11.53.53.85 1.03 1.12 1.73.2.53.45 1.32.52 2.78.07 1.58.08 2.06.08 6.06 0 4.01-.01 4.48-.08 6.06a8.22 8.22 0 0 1-.52 2.78c-.27.7-.6 1.2-1.12 1.73-.53.53-1.03.85-1.72 1.12-.53.2-1.33.45-2.79.51-1.58.07-2.06.1-6.06.1-4.01 0-4.49-.03-6.06-.1a8.23 8.23 0 0 1-2.79-.51c-.7-.27-1.2-.6-1.72-1.12a4.61 4.61 0 0 1-1.12-1.73 8.25 8.25 0 0 1-.52-2.78 105.7 105.7 0 0 1-.09-6.06c0-4 .02-4.48.1-6.06.06-1.46.3-2.25.5-2.78.28-.7.6-1.2 1.13-1.73a4.62 4.62 0 0 1 1.72-1.11 8.05 8.05 0 0 1 2.79-.52c1.57-.07 2.05-.09 6.06-.09Zm0-2.7c-4.07 0-4.58.02-6.18.09-1.6.07-2.69.33-3.64.7a7.3 7.3 0 0 0-2.66 1.73 7.35 7.35 0 0 0-1.73 2.65c-.37.96-.63 2.05-.7 3.64-.07 1.61-.09 2.12-.09 6.2 0 4.07.02 4.58.09 6.18.07 1.59.33 2.69.7 3.64.38.99.9 1.82 1.73 2.66a7.34 7.34 0 0 0 2.66 1.72 11 11 0 0 0 3.64.7c1.6.07 2.1.09 6.18.09s4.59-.02 6.19-.09a10.9 10.9 0 0 0 3.64-.7c.98-.38 1.82-.9 2.65-1.72a7.33 7.33 0 0 0 1.73-2.66 11 11 0 0 0 .7-3.64c.07-1.6.09-2.1.09-6.18 0-4.07-.02-4.58-.09-6.18-.07-1.6-.33-2.7-.7-3.64-.37-1-.88-1.84-1.71-2.67a7.34 7.34 0 0 0-2.66-1.73 11 11 0 0 0-3.64-.7c-1.6-.07-2.12-.09-6.2-.09Z"/><path d="M15 7.3a7.71 7.71 0 1 0 0 15.42 7.71 7.71 0 0 0 0-15.42Zm0 12.7a5 5 0 1 1 0-10 5 5 0 0 1 0 10Zm9.82-13a1.8 1.8 0 1 1-3.6-.01 1.8 1.8 0 0 1 3.6 0Z"/></g><defs><clipPath id="a"><path fill="#fff" d="M0 0h30v30h-30z"/></clipPath></defs></svg>