<svg viewBox="0 0 114 15" fill="none" xmlns="http://www.w3.org/2000/svg"><path d="M101.66 5.78a5.73 5.73 0 0 1 5.86-5.78 5.75 5.75 0 0 1 5.76 5.78 5.71 5.71 0 0 1-5.76 5.75 5.75 5.75 0 0 1-5.86-5.75Zm5.82 3.67c2 0 3.51-1.6 3.51-3.65 0-2.11-1.54-3.73-3.57-3.73a3.6 3.6 0 0 0-3.5 3.71 3.57 3.57 0 0 0 3.56 3.67Zm-18.44 5.55v-14.74h2.11v1.5a4.67 4.67 0 0 1 3.85-1.76c3.21 0 5.59 2.43 5.59 5.74 0 3.32-2.4 5.79-5.6 5.79-1.53 0-2.68-.5-3.7-1.58v5.05h-2.25Zm5.72-5.55c2.02 0 3.55-1.6 3.55-3.65 0-2.15-1.53-3.73-3.6-3.73-2.02 0-3.56 1.62-3.56 3.73a3.58 3.58 0 0 0 3.61 3.65Zm-17.78 1.82v-11.01h9.92v11.01h-2.26v-8.96h-5.4v8.96h-2.26Zm-13.74-5.47c0-3.35 2.39-5.8 5.66-5.8 1.7 0 2.87.58 3.83 1.9v-1.64h2.12v11.01h-2.12v-1.6a4.47 4.47 0 0 1-3.83 1.86 5.5 5.5 0 0 1-5.66-5.73Zm2.27.02c0 2.1 1.54 3.63 3.63 3.63 2.08 0 3.55-1.53 3.55-3.67a3.56 3.56 0 0 0-3.65-3.7c-2.01 0-3.53 1.61-3.53 3.74Zm-12.3 5.45v-11.01h4.49c2.53 0 4.03 1.22 4.03 3.23 0 .82-.56 1.68-1.36 2 1.14.42 1.8 1.27 1.8 2.31 0 2-1.66 3.47-3.91 3.47h-5.05Zm2.25-6.58h2.14c1.26 0 1.97-.44 1.97-1.2s-.7-1.18-1.97-1.18h-2.14v2.38Zm0 4.53h2.56c1.15 0 1.85-.54 1.85-1.42 0-.86-.67-1.38-1.85-1.38h-2.56v2.8Zm-12.73 2.05v-11.01h2.25v5.03l4.23-5.03h2.77l-4.74 5.43 4.9 5.58h-2.95l-4.2-5.1v5.1h-2.26Zm-13.75-5.47c0-3.35 2.4-5.8 5.66-5.8 1.7 0 2.88.58 3.83 1.9v-1.64h2.12v11.01h-2.12v-1.6a4.47 4.47 0 0 1-3.83 1.86 5.5 5.5 0 0 1-5.66-5.73Zm2.27.02c0 2.1 1.54 3.63 3.63 3.63 2.08 0 3.55-1.53 3.55-3.67a3.56 3.56 0 0 0-3.65-3.7c-2.01 0-3.53 1.61-3.53 3.74Z" fill="#141414"/><path fill-rule="evenodd" clip-rule="evenodd" d="M0 .26h1.4a3.73 3.73 0 0 1 3.72 3.73v1.97c0 .7.48 1.31 1.16 1.49l10.5 2.67c.98.25 1.92-.48 1.92-1.49v-4.64a3.73 3.73 0 0 1 3.74-3.73h1.27v2.2h-1.27c-.85 0-1.54.68-1.54 1.53v4.64c0 2.44-2.3 4.22-4.65 3.62l-10.51-2.67a3.73 3.73 0 0 1-2.81-3.62v-1.97c0-.85-.7-1.54-1.54-1.54h-1.39v-2.2Z" fill="#2E9CB4"/></svg>