<svg viewBox="0 0 85 234" fill="none" xmlns="http://www.w3.org/2000/svg"><path d="M40.94 32.24a2.27 2.27 0 0 1-2.29-2.33 2.28 2.28 0 0 1 2.3-2.28 2.26 2.26 0 0 1 2.27 2.28c0 1.3-1 2.33-2.28 2.33Zm1.46-2.31c0-.8-.63-1.4-1.45-1.4-.84 0-1.48.62-1.48 1.42 0 .77.65 1.38 1.47 1.38s1.46-.61 1.46-1.4Zm.72 6.37h-4.36v-1.78c0-1 .48-1.6 1.28-1.6a.9.9 0 0 1 .79.55c.16-.46.5-.72.91-.72.8 0 1.38.66 1.38 1.55v2Zm-2.6-.89v-.85c0-.5-.18-.78-.48-.78s-.47.28-.47.78v.85h.94Zm1.78 0v-1.01c0-.46-.2-.74-.56-.74-.34 0-.54.27-.54.74v1.01h1.1Zm.82 3.42h-3.55v1.06h-.81v-3h.81v1.05h3.55v.9Zm-1.39 2.43v-1a2.2 2.2 0 0 1 1.49 2.15 2.3 2.3 0 0 1-2.28 2.34 2.27 2.27 0 0 1-2.29-2.3c0-1.03.57-1.85 1.52-2.2v1.01c-.46.26-.7.65-.7 1.18 0 .82.62 1.4 1.47 1.4.83 0 1.46-.6 1.46-1.42 0-.5-.2-.83-.67-1.16Zm.57 6.44v-.92c0-.43-.22-.7-.57-.7-.36 0-.58.27-.58.7v.92h1.16Zm.82.9h-4.36v-.9h1.58v-1.01c0-.87.59-1.51 1.39-1.51.8 0 1.39.64 1.39 1.51v1.9Zm0 4.91-4.36-1.83v-.77l4.36-1.83v.95l-3.16 1.26 3.16 1.27v.95Zm-1.34 1.24v-.97a2.2 2.2 0 0 1 1.44 2.1c0 1.31-1 2.33-2.28 2.33-1.28 0-2.29-1-2.29-2.28a2.25 2.25 0 0 1 2.67-2.23v3.57c.64-.1 1.08-.66 1.08-1.37 0-.51-.22-.89-.62-1.15Zm-1.26 2.53v-2.72c-.66.15-1.05.65-1.05 1.36 0 .7.4 1.2 1.05 1.36Zm2.6 3.28h-3.55v1.05h-.81v-3h.81v1.05h3.55v.9Zm0 5.61h-4.36v-.89h3.1l-3.1-2.18v-.9h4.36v.88h-3.1l3.1 2.19v.9Zm-2.18 5.32a2.27 2.27 0 0 1-2.29-2.33 2.28 2.28 0 0 1 2.3-2.28 2.26 2.26 0 0 1 2.27 2.28c0 1.3-1 2.33-2.28 2.33Zm1.46-2.31c0-.79-.63-1.4-1.45-1.4-.84 0-1.48.62-1.48 1.42 0 .77.65 1.39 1.47 1.39s1.46-.62 1.46-1.41Zm2.2 7.4h-5.84v-.84h.59c-.45-.34-.7-.87-.7-1.52 0-1.27.97-2.21 2.28-2.21a2.2 2.2 0 0 1 2.29 2.22c0 .6-.2 1.06-.62 1.46h2v.9Zm-2.2-2.27c0-.8-.63-1.4-1.45-1.4-.85 0-1.48.6-1.48 1.43 0 .8.64 1.4 1.48 1.4.82 0 1.45-.62 1.45-1.43Zm.72 4.8h-3.55v1.06h-.81v-3.01h.81v1.06h3.55v.9Zm-1.6 2.55v-1.06c1.07.5 1.7 1.49 1.7 2.69a3.02 3.02 0 1 1-6.05.05 2.9 2.9 0 0 1 1.73-2.73v1.02a1.9 1.9 0 0 0-.85 1.7c0 1.2.92 2.1 2.13 2.1 1.2 0 2.16-.96 2.16-2.12 0-.65-.24-1.13-.82-1.65Zm10.3-52.97v-.97a2.2 2.2 0 0 1 1.43 2.1c0 1.31-1 2.33-2.27 2.33-1.28 0-2.3-1-2.3-2.28a2.25 2.25 0 0 1 2.67-2.23v3.56c.64-.1 1.08-.65 1.08-1.36 0-.52-.21-.89-.61-1.15Zm-1.27 2.53v-2.73c-.65.16-1.04.66-1.04 1.37 0 .7.39 1.2 1.04 1.36Zm2.6 5.62h-4.36v-.89h3.1l-3.1-2.18v-.91h4.36v.9h-3.09l3.1 2.17v.91Zm0 4.85h-4.36v-.9h1.74v-2.14h-1.74v-.9h4.36v.9h-1.8v2.15h1.8v.89Zm-2.16 5.5a2.2 2.2 0 0 1-2.3-2.24c0-.68.23-1.14.75-1.52h-.65v-.84h4.36v.84h-.63c.52.42.73.86.73 1.52 0 1.3-.95 2.24-2.26 2.24Zm0-.9a1.4 1.4 0 0 0 1.44-1.44c0-.82-.6-1.4-1.45-1.4s-1.47.6-1.47 1.44c0 .8.64 1.4 1.48 1.4Zm2.16 4.97h-4.36v-1.78c0-1 .48-1.6 1.28-1.6a.9.9 0 0 1 .79.54c.16-.45.5-.7.92-.7.79 0 1.37.65 1.37 1.54v2Zm-2.6-.9v-.84c0-.5-.18-.78-.48-.78s-.47.28-.47.78v.85h.94Zm1.79 0v-1c0-.46-.22-.74-.56-.74-.34 0-.55.27-.55.74v1h1.1Zm.81 5.78h-4.36v-.89h3.1l-3.1-2.18v-.91h4.36v.9h-3.09l3.09 2.17v.91Zm0 6.6-2.21-1.73-2.15 1.67v-1.06l2.01-1.49h-2.01v-.9h2.01l-2.01-1.49v-1.05l2.15 1.66 2.2-1.73v1.1l-2.04 1.51h2.05v.9h-2.05l2.05 1.51v1.1Zm1.48 3.53-1.8-.78-4.04 1.63v-1.01l3.04-1.1-3.04-1.2v-1.01l5.84 2.51v.96Zm-1.48 4.78-4.36-1.84v-.76l4.36-1.84v.95l-3.16 1.27 3.16 1.27v.95Zm-1.38 1.16v-1.01c.97.4 1.48 1.16 1.48 2.16a2.3 2.3 0 0 1-2.28 2.33 2.27 2.27 0 0 1-2.28-2.3c0-1.02.57-1.84 1.51-2.2v1.02c-.45.25-.7.65-.7 1.18 0 .81.63 1.4 1.47 1.4.83 0 1.46-.61 1.46-1.43 0-.49-.2-.83-.66-1.15Zm-2.1 7.86.01-.02c-.53-.24-.93-.98-.93-1.68 0-1.22.96-2.15 2.24-2.15a2.27 2.27 0 0 1 2.26 2.3c0 1.44-.95 2.29-2.56 2.29h-.66c-1.9 0-2.86-.78-3-2.41l-.14-1.89h.8l.16 1.84c.1 1.15.69 1.7 1.82 1.72Zm2.76-1.53c0-.8-.63-1.42-1.44-1.42a1.41 1.41 0 1 0-.01 2.82c.82 0 1.45-.6 1.45-1.4Zm-1.45 7.47c-1.3 0-2.3-1.01-2.3-2.32a2.28 2.28 0 0 1 2.3-2.28 2.26 2.26 0 0 1 2.27 2.28c0 1.3-1 2.32-2.27 2.32Zm1.45-2.3c0-.8-.63-1.4-1.44-1.4-.84 0-1.48.61-1.48 1.42 0 .76.65 1.38 1.47 1.38.81 0 1.45-.62 1.45-1.4Zm.72 9.2h-4.36v-.89h3.1l-3.1-2.18v-.91h4.36v.9h-3.09l3.1 2.18v.9Zm10.05-61.74h-4.37v-1.78c0-1 .48-1.6 1.28-1.6a.9.9 0 0 1 .79.55c.16-.46.5-.72.92-.72.79 0 1.37.66 1.37 1.55v2Zm-2.62-.89v-.85c0-.5-.17-.78-.47-.78-.3 0-.47.28-.47.78v.85h.94Zm1.8 0v-1.01c0-.46-.22-.74-.56-.74-.34 0-.55.27-.55.74v1.01h1.1Zm-1.36 6.21c-1.3 0-2.3-1.01-2.3-2.33a2.28 2.28 0 0 1 2.3-2.28 2.26 2.26 0 0 1 2.27 2.28c0 1.3-1 2.33-2.27 2.33Zm1.45-2.31c0-.79-.63-1.4-1.45-1.4-.83 0-1.47.62-1.47 1.42 0 .77.64 1.39 1.47 1.39.8 0 1.45-.62 1.45-1.41Zm.73 6.96h-4.37v-.89h1.75v-2.15h-1.75v-.9h4.36v.9h-1.8v2.15h1.8v.9Zm-5.9 4.16v-.72c.4 0 .6-.17.6-.54s-.2-.55-.6-.55v-.73c.68.12 1.03.55 1.03 1.28 0 .72-.35 1.15-1.03 1.27Zm5.9.73h-4.37v-.9h3.1l-3.1-2.18v-.9h4.36v.89h-3.09l3.1 2.18v.9Zm-1.35 1.77v-.97a2.2 2.2 0 0 1 1.44 2.1c0 1.31-1 2.33-2.27 2.33-1.28 0-2.3-1-2.3-2.28a2.25 2.25 0 0 1 2.67-2.23v3.56c.64-.1 1.08-.65 1.08-1.36 0-.52-.21-.89-.62-1.15Zm-1.26 2.53v-2.73c-.66.16-1.04.66-1.04 1.37 0 .7.38 1.2 1.04 1.36Zm1.21 2.44v-1.01c.98.41 1.5 1.16 1.5 2.16a2.3 2.3 0 0 1-2.3 2.34 2.27 2.27 0 0 1-2.28-2.31c0-1.02.57-1.84 1.52-2.19v1.01c-.46.25-.7.65-.7 1.18 0 .81.62 1.4 1.47 1.4.83 0 1.46-.61 1.46-1.43 0-.48-.2-.82-.66-1.15Zm0 5v-1.02c.98.41 1.5 1.17 1.5 2.16a2.3 2.3 0 0 1-2.3 2.34 2.27 2.27 0 0 1-2.28-2.3c0-1.03.57-1.85 1.52-2.2v1.02c-.46.25-.7.64-.7 1.17 0 .82.62 1.4 1.47 1.4.83 0 1.46-.6 1.46-1.42 0-.5-.2-.83-.66-1.15Zm-.78 8.79a2.2 2.2 0 0 1-2.3-2.24c0-.68.23-1.14.75-1.52h-.64v-.84h4.36v.84h-.63c.52.43.73.86.73 1.52 0 1.3-.95 2.24-2.27 2.24Zm.01-.9a1.4 1.4 0 0 0 1.44-1.44c0-.82-.6-1.4-1.45-1.4-.86 0-1.47.6-1.47 1.44 0 .8.64 1.4 1.48 1.4Zm-1.32 5.27.01-.02c-.53-.24-.93-.98-.93-1.67 0-1.23.96-2.16 2.24-2.16a2.27 2.27 0 0 1 2.26 2.3c0 1.45-.95 2.3-2.57 2.3h-.65c-1.9 0-2.86-.79-3-2.42l-.15-1.89h.8l.17 1.84c.1 1.16.68 1.71 1.82 1.72Zm2.76-1.53c0-.8-.63-1.42-1.45-1.42a1.41 1.41 0 1 0 0 2.82c.82 0 1.45-.6 1.45-1.4Z" fill="#141414"/><path fill-rule="evenodd" clip-rule="evenodd" d="M.6 234v-2.23c0-8.87 7.2-16.05 16.06-16.05h16.5c5.47 0 10.17-3.86 11.24-9.23l34.81-174.46a11.47 11.47 0 0 0-11.24-13.71h-51.31a16.05 16.05 0 0 1-16.05-16.05v-2.27h4.58v2.27c0 6.33 5.14 11.46 11.47 11.46h51.3a16.05 16.05 0 0 1 15.75 19.2l-34.8 174.46a16.05 16.05 0 0 1-15.75 12.91h-16.5a11.47 11.47 0 0 0-11.47 11.47v2.23h-4.58Z" fill="#2E9CB4"/><path d="M12.07 206.48c-6.97 0-12.07-5.08-12.07-12.02 0-3.6 1.2-6.1 3.94-8.13h-3.4v-4.48h22.9v4.48h-3.32c2.73 2.29 3.85 4.61 3.85 8.13 0 6.98-5.02 12.02-11.9 12.02Zm.04-4.83c4.36 0 7.55-3.25 7.55-7.7 0-4.4-3.2-7.53-7.63-7.53a7.47 7.47 0 0 0-7.72 7.74c0 4.28 3.36 7.5 7.8 7.5Zm11.3-24.35h-22.86v-4.77h10.44l-10.44-8.98v-5.88l11.27 10.07 11.6-10.4v6.26l-10.6 8.93h10.6v4.78Zm-11.37-43.5c-6.95 0-12.04-5.09-12.04-12.03 0-3.6 1.2-6.1 3.93-8.13h-3.4v-4.48h22.85v4.48h-3.31c2.73 2.29 3.84 4.62 3.84 8.13 0 6.98-5 12.02-11.87 12.02Zm.04-4.83c4.34 0 7.53-3.26 7.53-7.7 0-4.4-3.19-7.54-7.61-7.54a7.46 7.46 0 0 0-7.7 7.74c0 4.28 3.35 7.5 7.78 7.5Zm11.33 26.09h-22.86v-9.52c0-5.38 2.53-8.55 6.71-8.55 1.7 0 3.48 1.19 4.14 2.88.87-2.41 2.65-3.81 4.8-3.81 4.15 0 7.21 3.51 7.21 8.3v10.7Zm-13.66-4.78v-4.53c0-2.66-.91-4.19-2.49-4.19-1.57 0-2.44 1.48-2.44 4.2v4.52h4.93Zm9.4 0v-5.42c0-2.45-1.12-3.93-2.94-3.93-1.78 0-2.86 1.44-2.86 3.93v5.42h5.8Zm4.38-45.66h-22.98v-21.03h22.98v4.78h-18.69v11.47h18.7v4.78Zm9.07-25.57h-32.05v-4.49h3.17c-2.4-1.86-3.72-4.7-3.72-8.17 0-6.81 5.16-11.85 12.19-11.85 7.03 0 12.27 5.08 12.27 11.9 0 3.21-1.05 5.67-3.34 7.82h11.47v4.79Zm-12.54-12.15c0-4.28-3.38-7.53-7.74-7.53-4.57 0-7.92 3.26-7.92 7.66 0 4.27 3.43 7.53 7.92 7.53a7.6 7.6 0 0 0 7.74-7.66Zm-8.06-14.63c-6.79 0-12-5.42-12-12.44 0-6.82 5.34-12.23 12-12.23s11.91 5.41 11.91 12.23c0 6.98-5.25 12.44-11.91 12.44Zm7.61-12.36a7.39 7.39 0 0 0-7.57-7.45c-4.39 0-7.74 3.26-7.74 7.58 0 4.1 3.4 7.4 7.7 7.4a7.5 7.5 0 0 0 7.61-7.53Z" fill="#141414"/></svg>