<svg viewBox="0 0 30 30" fill="none" xmlns="http://www.w3.org/2000/svg"><g clip-path="url(#a)"><path fill-rule="evenodd" clip-rule="evenodd" d="M2.1 2.1c-2.1 2.12-2.1 5.51-2.1 12.3v1.2c0 6.79 0 10.18 2.1 12.3 2.12 2.1 5.51 2.1 12.3 2.1h1.2c6.79 0 10.18 0 12.3-2.1 2.1-2.12 2.1-5.51 2.1-12.3v-1.2c0-6.79 0-10.18-2.1-12.3-2.12-2.1-5.51-2.1-12.3-2.1h-1.2c-6.79 0-10.18 0-12.3 2.1Zm2.96 7.03c.17 7.8 4.07 12.48 10.9 12.48h.39v-4.46c2.51.25 4.41 2.09 5.17 4.46h3.56a9.87 9.87 0 0 0-5.14-6.26 9.53 9.53 0 0 0 4.38-6.22h-3.22c-.7 2.47-2.77 4.72-4.75 4.93v-4.93h-3.23v8.65c-2-.5-4.52-2.93-4.63-8.65h-3.43Z" fill="#141414"/></g><defs><clipPath id="a"><path fill="#fff" d="M0 0h30v30h-30z"/></clipPath></defs></svg>