<svg viewBox="0 0 30 30" fill="none" xmlns="http://www.w3.org/2000/svg"><g clip-path="url(#a)" fill-rule="evenodd" clip-rule="evenodd" fill="#141414"><path d="M15.27 0a14.68 14.68 0 0 0-14.73 14.62c0 2.75.78 5.35 2.11 7.54l-2.65 7.84 8.15-2.6a14.82 14.82 0 0 0 7.12 1.82c8.13 0 14.73-6.55 14.73-14.62 0-8.05-6.6-14.6-14.73-14.6Zm0 26.9c-2.5 0-4.86-.75-6.8-2.04l-4.77 1.52 1.55-4.57a12.2 12.2 0 0 1-2.35-7.21c0-6.76 5.54-12.27 12.37-12.27 6.83 0 12.38 5.51 12.38 12.29 0 6.77-5.55 12.28-12.38 12.28Z"/><path d="M11.81 8.57c-.24-.57-.42-.59-.79-.6-.12 0-.26-.03-.42-.03-.47 0-.96.14-1.26.44-.37.37-1.27 1.22-1.27 2.98s1.3 3.47 1.48 3.71c.17.24 2.53 3.9 6.16 5.4 2.84 1.17 3.69 1.06 4.34.92.94-.2 2.12-.88 2.42-1.72.3-.84.3-1.55.2-1.7-.08-.16-.32-.25-.68-.43-.36-.17-2.14-1.04-2.47-1.16-.33-.13-.63-.09-.9.26-.35.49-.68.97-.96 1.27-.23.23-.58.26-.88.14-.4-.17-1.53-.56-2.9-1.78a10.75 10.75 0 0 1-1.98-2.45c-.21-.37-.02-.58.14-.77l.55-.6c.17-.2.28-.3.4-.55.12-.24.03-.49-.05-.66-.1-.2-.83-1.95-1.13-2.67Z"/></g><defs><clipPath id="a"><path fill="#fff" d="M0 0h30v30h-30z"/></clipPath></defs></svg>